{
	"asset":{
		"generator":"Khronos glTF Blender I/O v4.0.44",
		"version":"2.0"
	},
	"scene":0,
	"scenes":[
		{
			"name":"Scene",
			"nodes":[
				0
			]
		}
	],
	"nodes":[
		{
			"mesh":0,
			"name":"Mesh_0"
		}
	],
	"materials":[
		{
			"name":"Material_0",
			"pbrMetallicRoughness":{
				"baseColorTexture":{
					"index":0
				},
				"metallicFactor":0
			}
		}
	],
	"meshes":[
		{
			"name":"Mesh_0",
			"primitives":[
				{
					"attributes":{
						"POSITION":0,
						"NORMAL":1,
						"TEXCOORD_0":2
					},
					"indices":3,
					"material":0
				}
			]
		}
	],
	"textures":[
		{
			"sampler":0,
			"source":0
		}
	],
	"images":[
		{
			"mimeType":"image/jpeg",
			"name":"Image_0",
			"uri":"Image_0.jpg"
		}
	],
	"accessors":[
		{
			"bufferView":0,
			"componentType":5126,
			"count":687819,
			"max":[
				0.15895210206508636,
				0.1041913628578186,
				0.21390452980995178
			],
			"min":[
				-0.1733046919107437,
				0.061927080154418945,
				-0.21746420860290527
			],
			"type":"VEC3"
		},
		{
			"bufferView":1,
			"componentType":5126,
			"count":687819,
			"type":"VEC3"
		},
		{
			"bufferView":2,
			"componentType":5126,
			"count":687819,
			"type":"VEC2"
		},
		{
			"bufferView":3,
			"componentType":5125,
			"count":687873,
			"type":"SCALAR"
		}
	],
	"bufferViews":[
		{
			"buffer":0,
			"byteLength":8253828,
			"byteOffset":0,
			"target":34962
		},
		{
			"buffer":0,
			"byteLength":8253828,
			"byteOffset":8253828,
			"target":34962
		},
		{
			"buffer":0,
			"byteLength":5502552,
			"byteOffset":16507656,
			"target":34962
		},
		{
			"buffer":0,
			"byteLength":2751492,
			"byteOffset":22010208,
			"target":34963
		}
	],
	"samplers":[
		{
			"magFilter":9729,
			"minFilter":9987
		}
	],
	"buffers":[
		{
			"byteLength":24761700,
			"uri":"pizza.bin"
		}
	]
}
